HIERARCHY
ROOT Hips
{
	OFFSET 0.00 0.00 0.00
	CHANNELS 6 Xposition Yposition Zposition Xrotation Yrotation Zrotation
	JOINT Spine
	{
		OFFSET 0.00000 1.74037 2.61055
		CHANNELS 3 Xrotation Yrotation Zrotation
		JOINT Spine1
		{
			OFFSET 0.00000 0.60442 3.42785
			CHANNELS 3 Xrotation Yrotation Zrotation
			JOINT Spine2
			{
				OFFSET 0.00000 0.30337 3.46749
				CHANNELS 3 Xrotation Yrotation Zrotation
				JOINT Spine3
				{
					OFFSET 0.00000 0.00000 3.48073
					CHANNELS 3 Xrotation Yrotation Zrotation
					JOINT Neck
					{
						OFFSET 0.00000 -1.30527 9.13692
						CHANNELS 3 Xrotation Yrotation Zrotation
						JOINT Head
						{
							OFFSET 0.00000 -0.83108 4.71330
							CHANNELS 3 Xrotation Yrotation Zrotation
							End Site
							{
								OFFSET 0.00000 0.00000 5.63444
							}
						}
					}
					JOINT RightShoulder
					{
						OFFSET -1.19033 -1.98388 6.42776
						CHANNELS 3 Xrotation Yrotation Zrotation
						JOINT RightArm
						{
							OFFSET -5.91195 -0.00000 0.00000
							CHANNELS 3 Xrotation Yrotation Zrotation
							JOINT RightForeArm
							{
								OFFSET -11.47200 -0.00000 0.00000
								CHANNELS 3 Xrotation Yrotation Zrotation
								JOINT RightHand
								{
									OFFSET -9.14371 -0.00000 0.00000
									CHANNELS 3 Xrotation Yrotation Zrotation
									JOINT RightHandEnd
									{
										OFFSET -2.71173 -0.00000 0.00000
										CHANNELS 3 Xrotation Yrotation Zrotation
										End Site
										{
											OFFSET -2.71173 -0.00000 0.00000
										}
									}
									JOINT RightHandThumb1
									{
										OFFSET -1.08469 -1.80782 -0.72313
										CHANNELS 3 Xrotation Yrotation Zrotation
										End Site
										{
											OFFSET -2.61933 -0.70185 0.00000
										}
									}
								}
							}
						}
					}
					JOINT LeftShoulder
					{
						OFFSET 1.19033 -1.98388 6.42776
						CHANNELS 3 Xrotation Yrotation Zrotation
						JOINT LeftArm
						{
							OFFSET 5.91195 0.00000 0.00000
							CHANNELS 3 Xrotation Yrotation Zrotation
							JOINT LeftForeArm
							{
								OFFSET 11.47200 0.00000 0.00000
								CHANNELS 3 Xrotation Yrotation Zrotation
								JOINT LeftHand
								{
									OFFSET 9.14371 0.00000 0.00000
									CHANNELS 3 Xrotation Yrotation Zrotation
									JOINT LeftHandEnd
									{
										OFFSET 2.71173 0.00000 0.00000
										CHANNELS 3 Xrotation Yrotation Zrotation
										End Site
										{
											OFFSET 2.71173 0.00000 0.00000
										}
									}
									JOINT LeftHandThumb1
									{
										OFFSET 1.08469 -1.80782 -0.72313
										CHANNELS 3 Xrotation Yrotation Zrotation
										End Site
										{
											OFFSET 2.61933 -0.70185 0.00000
										}
									}
								}
							}
						}
					}
				}
			}
		}
	}
	JOINT RightUpLeg
	{
		OFFSET -3.53130 0.00000 -1.03162
		CHANNELS 3 Xrotation Yrotation Zrotation
		JOINT RightLeg
		{
			OFFSET 0.00000 0.00000 -16.51463
			CHANNELS 3 Xrotation Yrotation Zrotation
			JOINT RightFoot
			{
				OFFSET 0.00000 0.00000 -16.87143
				CHANNELS 3 Xrotation Yrotation Zrotation
				JOINT RightToeBase
				{
					OFFSET 0.00000 -7.15696 -2.60492
					CHANNELS 3 Xrotation Yrotation Zrotation
					End Site
					{
						OFFSET -0.00000 -2.85678 0.00000
					}
				}
			}
		}
	}
	JOINT LeftUpLeg
	{
		OFFSET 3.53130 0.00000 -1.03162
		CHANNELS 3 Xrotation Yrotation Zrotation
		JOINT LeftLeg
		{
			OFFSET 0.00000 0.00000 -16.51463
			CHANNELS 3 Xrotation Yrotation Zrotation
			JOINT LeftFoot
			{
				OFFSET 0.00000 0.00000 -16.87143
				CHANNELS 3 Xrotation Yrotation Zrotation
				JOINT LeftToeBase
				{
					OFFSET 0.00000 -7.15696 -2.60492
					CHANNELS 3 Xrotation Yrotation Zrotation
					End Site
					{
						OFFSET -0.00000 -2.85678 0.00000
					}
				}
			}
		}
	}
}
MOTION
Frames: 7
Frame Time: 0.008333
 -13.3651 32.1059 -54.1399 -101.0926 2.1672 -157.9916 8.3881 1.8039 -2.0463 3.8367 -0.8024 -0.3579 7.0160 -1.9447 -4.3327 2.0270 -1.0446 -0.2912 9.4844 -6.6832 -5.8151 5.9287 0.1575 -12.5089 0.3633 8.5464 4.7913 16.6768 -3.4540 20.2843 -0.0000 0.0000 129.2315 22.4219 -4.3202 5.7264 -0.0000 0.0000 -0.0000 0.0000 0.0000 -0.0000 0.8014 -18.8387 -9.4299 -3.6900 7.2909 -41.2626 -0.0000 -0.0000 -126.4684 -16.2212 20.0362 -0.0373 0.0000 -0.0000 -0.0000 0.0000 -0.0000 -0.0000 -48.8805 11.5615 2.9953 48.6366 -0.0000 0.0000 -11.9419 -3.9761 -2.7928 2.9788 -0.0000 -0.0000 -7.5293 -3.1678 10.7713 61.3632 0.0000 0.0000 -32.0735 17.9160 7.2794 -0.6844 -0.0000 0.0000
 -13.4079 32.2709 -54.0056 -100.5773 1.9607 -157.7422 8.2203 1.7899 -1.9858 3.7196 -0.8333 -0.3576 6.7683 -1.9586 -4.3752 2.1094 -1.0997 -0.2878 9.7726 -6.8922 -5.8539 6.5203 0.2515 -12.7532 0.0077 8.7159 5.0969 17.3156 -4.6113 19.6810 -0.0000 0.0000 128.4876 21.3439 -4.5993 6.0452 -0.0000 0.0000 0.0000 0.0000 0.0000 -0.0000 0.5470 -18.9664 -9.7843 -4.2844 8.9914 -41.3969 -0.0000 -0.0000 -125.3397 -16.1112 20.1512 -0.3734 -0.0000 -0.0000 -0.0000 -0.0000 0.0000 0.0000 -47.5775 11.6815 2.3011 46.9165 0.0000 0.0000 -10.9744 -4.1181 -2.7092 3.0233 -0.0000 0.0000 -6.9802 -3.1730 10.5697 58.5058 0.0000 0.0000 -32.4246 17.1771 7.4670 -0.8397 -0.0000 0.0000
 -13.4541 32.4358 -53.8730 -100.0426 1.8653 -157.5437 8.0493 1.8155 -1.9503 3.6262 -0.7848 -0.3455 6.5826 -1.9115 -4.3913 2.1812 -1.1718 -0.2611 10.0290 -7.1508 -5.9137 7.1167 0.3126 -12.9047 -0.3017 8.9057 5.2639 17.8620 -6.0250 19.2758 -0.0000 0.0000 127.7014 23.5213 -4.6314 6.0337 0.0000 0.0000 0.0000 0.0000 -0.0000 -0.0000 0.2249 -19.1417 -10.1147 -4.7648 10.7992 -41.6061 -0.0000 -0.0000 -124.2465 -14.1364 22.8846 -1.8252 -0.0000 0.0000 0.0000 0.0000 0.0000 0.0000 -46.2297 11.8143 1.7016 45.1772 0.0000 0.0000 -9.9605 -4.2790 -2.6202 3.0280 0.0000 0.0000 -6.2843 -3.0860 10.3422 55.4682 0.0000 0.0000 -32.8291 17.2853 7.7985 -0.7500 -0.0000 0.0000
 -13.5035 32.5921 -53.7341 -99.5274 1.7685 -157.3033 7.8680 1.8418 -1.9371 3.5460 -0.7423 -0.3361 6.3636 -1.8522 -4.4213 2.2558 -1.2519 -0.2501 10.2433 -7.4191 -5.9874 7.6844 0.3628 -13.1336 -0.6148 9.1728 5.3779 18.3819 -7.3087 18.9172 -0.0000 0.0000 126.8729 23.0851 -4.4312 6.2036 -0.0000 -0.0000 0.0000 0.0000 0.0000 -0.0000 -0.0702 -19.4293 -10.3450 -5.3762 12.9803 -42.0177 -0.0000 -0.0000 -122.8255 -19.4883 17.4240 -0.1970 0.0000 -0.0000 0.0000 0.0000 0.0000 -0.0000 -44.8689 11.9731 1.0726 43.3800 -0.0000 0.0000 -8.8878 -4.8785 -2.5455 2.7457 -0.0000 0.0000 -5.5561 -2.9729 10.0898 52.2839 0.0000 0.0000 -33.1043 17.0995 8.1239 -0.4871 -0.0000 0.0000
 -13.5496 32.7432 -53.5898 -99.0056 1.6452 -157.0365 7.6887 1.8522 -1.9263 3.4766 -0.6833 -0.3255 6.1446 -1.8061 -4.4576 2.3085 -1.3337 -0.2300 10.4486 -7.6960 -6.0695 8.2096 0.4312 -13.3507 -0.8123 9.4334 5.3857 18.7127 -8.5708 18.6029 -0.0000 0.0000 126.0674 21.1689 -4.1385 6.3345 -0.0000 0.0000 0.0000 0.0000 -0.0000 0.0000 -0.3744 -19.6968 -10.5882 -5.9818 15.2646 -42.3926 0.0000 0.0000 -121.5106 -20.1203 17.4883 -0.2627 -0.0000 -0.0000 0.0000 0.0000 -0.0000 -0.0000 -43.5533 12.0861 0.4311 41.6501 0.0000 0.0000 -7.8313 -4.9453 -2.4840 2.6610 -0.0000 0.0000 -4.7956 -2.9016 9.8335 48.9707 -0.0000 0.0000 -33.1869 16.7265 8.4102 -0.3727 -0.0000 0.0000
 -13.5978 32.8833 -53.4415 -98.5413 1.5067 -156.7827 7.4697 1.8422 -1.9374 3.3736 -0.6226 -0.3117 5.9269 -1.7158 -4.4586 2.3476 -1.3938 -0.2030 10.5917 -8.0153 -6.1690 8.7941 0.4356 -13.5305 -0.9120 9.6324 5.3328 18.7763 -9.9907 18.2460 -0.0000 -0.0000 125.3501 20.0525 -4.1555 6.6413 0.0000 0.0000 0.0000 0.0000 0.0000 0.0000 -0.5792 -19.9770 -10.8334 -6.7401 17.6630 -42.7381 0.0000 0.0000 -120.1910 -20.6852 17.6184 -0.2999 -0.0000 -0.0000 -0.0000 0.0000 -0.0000 0.0000 -42.3369 12.1702 -0.1603 39.9580 -0.0000 0.0000 -6.7408 -5.1713 -2.4525 2.4842 -0.0000 0.0000 -4.0329 -2.8169 9.5813 45.5226 0.0000 0.0000 -33.0851 16.2441 8.6247 -0.4322 -0.0000 0.0000
 -13.6381 33.0152 -53.2811 -98.0490 1.2595 -156.4692 7.2730 1.7680 -1.9379 3.3016 -0.5669 -0.3055 5.6762 -1.6798 -4.5040 2.3646 -1.4535 -0.1838 10.7700 -8.3470 -6.2907 9.2749 0.4659 -13.7938 -0.9583 9.7808 5.2390 18.6729 -11.2505 17.8132 -0.0000 0.0000 124.7674 21.7124 -3.6884 6.8071 -0.0000 -0.0000 0.0000 0.0000 0.0000 -0.0000 -0.8326 -20.3146 -11.1176 -7.5695 20.2866 -42.9473 0.0000 0.0000 -118.7973 -19.9058 19.5698 -0.9691 -0.0000 0.0000 -0.0000 -0.0000 0.0000 -0.0000 -41.1758 12.1483 -0.7910 38.3366 0.0000 -0.0000 -5.6327 -4.8824 -2.5061 2.5971 -0.0000 0.0000 -3.2909 -2.8578 9.3265 41.9980 0.0000 0.0000 -32.6195 15.4659 8.7373 -0.4252 -0.0000 0.0000
